<!DOCTYPE svg PUBLIC "-//W3C//DTD SVG 20010904//EN" "http://www.w3.org/TR/2001/REC-SVG-20010904/DTD/svg10.dtd">
<svg version="1.0" xmlns="http://www.w3.org/2000/svg" width="239px" height="239px" viewBox="0 0 2390 2390" preserveAspectRatio="xMidYMid meet">
<g id="layer101" fill="#000000" stroke="none">
 <path d="M958 2371 c-118 -26 -177 -46 -283 -96 -312 -149 -549 -437 -642 -782 -25 -91 -27 -113 -27 -298 0 -185 2 -207 27 -298 58 -215 160 -391 316 -548 157 -156 333 -258 548 -316 91 -25 113 -27 298 -27 185 0 207 2 298 27 215 58 391 160 548 316 156 157 258 333 316 548 25 91 27 113 27 298 0 185 -2 207 -27 298 -58 215 -160 391 -316 548 -157 157 -336 260 -548 316 -135 36 -402 43 -535 14z"/>
 </g>
<g id="layer102" fill="#b7e3e4" stroke="none">
 <path d="M958 2370 c-117 -25 -176 -44 -286 -97 l-93 -44 7 -32 c3 -18 28 -77 54 -132 26 -55 53 -118 60 -139 7 -22 26 -62 41 -88 16 -27 32 -61 35 -76 15 -63 42 -65 192 -10 82 29 95 31 232 32 116 0 153 -3 183 -16 20 -10 73 -27 117 -39 63 -17 83 -19 95 -9 20 17 96 177 191 405 20 48 38 79 46 77 28 -5 -32 32 -117 73 -175 84 -321 115 -529 114 -96 0 -169 -6 -228 -19z"/>
 <path d="M465 2146 c-206 -157 -362 -392 -432 -653 -25 -91 -27 -113 -27 -298 0 -185 2 -207 27 -298 58 -215 160 -391 316 -548 157 -156 333 -258 548 -316 91 -25 113 -27 298 -27 185 0 207 2 298 27 215 58 391 160 548 316 156 157 258 333 316 548 25 91 27 113 27 298 0 185 -2 207 -27 298 -34 129 -92 257 -163 364 -60 91 -215 255 -294 309 l-45 32 3 -361 3 -361 36 -66 c20 -36 44 -76 53 -90 26 -37 78 -233 85 -320 11 -141 -34 -377 -89 -460 -13 -20 -33 -55 -45 -79 -46 -89 -263 -279 -341 -298 -14 -3 -42 -14 -63 -25 -70 -35 -231 -61 -337 -55 -121 8 -311 64 -389 114 -120 77 -240 206 -306 328 -130 243 -131 572 -2 815 28 52 57 103 66 114 14 16 16 67 19 382 2 200 -1 364 -5 364 -4 0 -39 -24 -78 -54z"/>
 <path d="M623 1918 c-10 -16 -17 -279 -9 -313 8 -32 19 -31 77 5 56 37 68 69 40 108 -10 15 -24 45 -30 67 -6 22 -20 55 -31 73 -11 18 -20 39 -20 47 0 20 -17 28 -27 13z"/>
 <path d="M1744 1876 c-29 -44 -84 -176 -84 -201 0 -26 7 -34 52 -68 55 -41 74 -37 82 19 14 102 2 277 -19 281 -6 1 -20 -13 -31 -31z"/>
 <path d="M995 1701 c-84 -25 -253 -115 -297 -158 -22 -22 -38 -47 -38 -60 l0 -23 165 0 164 0 26 33 c37 45 84 155 85 195 0 38 -13 40 -105 13z"/>
 <path d="M1296 1705 c-7 -21 58 -176 92 -216 l24 -29 163 0 c153 0 163 1 168 19 5 22 -57 90 -103 114 -14 7 -56 30 -95 49 -97 51 -139 66 -194 74 -40 5 -49 3 -55 -11z"/>
 <path d="M1141 1615 c-51 -109 -53 -116 -37 -138 12 -15 27 -17 102 -15 l89 3 3 29 c2 18 -10 59 -34 110 -58 125 -69 126 -123 11z"/>
 <path d="M650 1413 c-39 -14 -40 -27 -40 -379 0 -199 4 -353 10 -368 11 -29 30 -35 30 -10 0 8 7 22 15 30 8 8 20 34 26 57 6 23 26 69 45 102 18 34 40 79 47 100 15 43 86 203 145 328 64 136 55 147 -127 146 -75 0 -143 -3 -151 -6z"/>
 <path d="M1095 1414 c-38 -9 -62 -40 -99 -129 -21 -49 -53 -121 -71 -160 -72 -152 -143 -311 -150 -335 -4 -14 -20 -47 -35 -75 -15 -27 -33 -68 -40 -90 -7 -22 -28 -71 -47 -110 -18 -38 -33 -81 -33 -94 0 -32 68 -97 170 -161 117 -74 150 -87 238 -100 116 -17 361 -8 427 15 60 22 199 110 273 173 63 54 66 75 22 165 -16 34 -45 98 -64 142 -18 44 -57 132 -86 195 -29 63 -61 137 -72 164 -11 28 -42 97 -70 155 -27 59 -58 129 -69 158 -29 75 -53 87 -174 89 -55 1 -109 0 -120 -2z"/>
 <path d="M1447 1403 c-22 -25 -22 -22 14 -101 18 -37 42 -94 55 -128 12 -33 31 -76 42 -95 12 -18 28 -54 37 -79 18 -48 118 -269 140 -310 16 -30 41 -47 52 -36 4 4 8 168 8 365 0 340 -1 358 -19 377 -17 17 -37 19 -165 22 -134 3 -148 2 -164 -15z"/>
 <path d="M505 1299 c-4 -13 -20 -53 -36 -87 -80 -172 -77 -394 8 -582 12 -25 23 -53 26 -62 3 -9 14 -15 24 -14 17 3 18 25 21 384 1 253 -1 382 -8 382 -5 0 -10 -6 -10 -12 0 -10 -3 -9 -9 1 -7 10 -10 8 -16 -10z"/>
 <path d="M1874 1305 c-11 -25 -12 -713 -1 -740 7 -17 13 -11 39 40 61 118 68 154 68 325 0 164 -9 213 -58 308 -11 20 -24 48 -30 62 -9 24 -10 24 -18 5z"/>
 </g>

</svg>